<mxfile host="Electron" agent="Mozilla/5.0 (Windows NT 10.0; Win64; x64) AppleWebKit/537.36 (KHTML, like Gecko) draw.io/24.7.17 Chrome/128.0.6613.36 Electron/32.0.1 Safari/537.36" version="24.7.17" pages="3">
  <diagram name="ClassDiagram" id="-rl8sIzRqfz1XN3XbGNQ">
    <mxGraphModel dx="1900" dy="1729" grid="1" gridSize="10" guides="1" tooltips="1" connect="1" arrows="1" fold="1" page="1" pageScale="1" pageWidth="850" pageHeight="1100" math="0" shadow="0">
      <root>
        <mxCell id="0" />
        <mxCell id="1" parent="0" />
        <mxCell id="jPHau2xeoSbhI2vaK8ID-21" value="StudentUIInput" style="swimlane;fontStyle=1;align=center;verticalAlign=top;childLayout=stackLayout;horizontal=1;startSize=26;horizontalStack=0;resizeParent=1;resizeParentMax=0;resizeLast=0;collapsible=1;marginBottom=0;whiteSpace=wrap;html=1;" parent="1" vertex="1">
          <mxGeometry x="-380" y="320" width="200" height="138" as="geometry" />
        </mxCell>
        <mxCell id="jPHau2xeoSbhI2vaK8ID-22" value="- stdOut: PrintWriter" style="text;strokeColor=none;fillColor=none;align=left;verticalAlign=top;spacingLeft=4;spacingRight=4;overflow=hidden;rotatable=0;points=[[0,0.5],[1,0.5]];portConstraint=eastwest;whiteSpace=wrap;html=1;" parent="jPHau2xeoSbhI2vaK8ID-21" vertex="1">
          <mxGeometry y="26" width="200" height="26" as="geometry" />
        </mxCell>
        <mxCell id="0izLVIcKK9ym0HCeA4KC-4" value="- stdIn: BufferedReader" style="text;strokeColor=none;fillColor=none;align=left;verticalAlign=top;spacingLeft=4;spacingRight=4;overflow=hidden;rotatable=0;points=[[0,0.5],[1,0.5]];portConstraint=eastwest;whiteSpace=wrap;html=1;" parent="jPHau2xeoSbhI2vaK8ID-21" vertex="1">
          <mxGeometry y="52" width="200" height="26" as="geometry" />
        </mxCell>
        <mxCell id="0izLVIcKK9ym0HCeA4KC-5" value="- studentControl: StudentControl" style="text;strokeColor=none;fillColor=none;align=left;verticalAlign=top;spacingLeft=4;spacingRight=4;overflow=hidden;rotatable=0;points=[[0,0.5],[1,0.5]];portConstraint=eastwest;whiteSpace=wrap;html=1;" parent="jPHau2xeoSbhI2vaK8ID-21" vertex="1">
          <mxGeometry y="78" width="200" height="26" as="geometry" />
        </mxCell>
        <mxCell id="jPHau2xeoSbhI2vaK8ID-23" value="" style="line;strokeWidth=1;fillColor=none;align=left;verticalAlign=middle;spacingTop=-1;spacingLeft=3;spacingRight=3;rotatable=0;labelPosition=right;points=[];portConstraint=eastwest;strokeColor=inherit;" parent="jPHau2xeoSbhI2vaK8ID-21" vertex="1">
          <mxGeometry y="104" width="200" height="8" as="geometry" />
        </mxCell>
        <mxCell id="jPHau2xeoSbhI2vaK8ID-24" value="+ input(): void" style="text;strokeColor=none;fillColor=none;align=left;verticalAlign=top;spacingLeft=4;spacingRight=4;overflow=hidden;rotatable=0;points=[[0,0.5],[1,0.5]];portConstraint=eastwest;whiteSpace=wrap;html=1;" parent="jPHau2xeoSbhI2vaK8ID-21" vertex="1">
          <mxGeometry y="112" width="200" height="26" as="geometry" />
        </mxCell>
        <mxCell id="jPHau2xeoSbhI2vaK8ID-25" value="StudentControl" style="swimlane;fontStyle=1;align=center;verticalAlign=top;childLayout=stackLayout;horizontal=1;startSize=26;horizontalStack=0;resizeParent=1;resizeParentMax=0;resizeLast=0;collapsible=1;marginBottom=0;whiteSpace=wrap;html=1;" parent="1" vertex="1">
          <mxGeometry x="345" y="320" width="195" height="112" as="geometry" />
        </mxCell>
        <mxCell id="jPHau2xeoSbhI2vaK8ID-26" value="- student: Student" style="text;strokeColor=none;fillColor=none;align=left;verticalAlign=top;spacingLeft=4;spacingRight=4;overflow=hidden;rotatable=0;points=[[0,0.5],[1,0.5]];portConstraint=eastwest;whiteSpace=wrap;html=1;" parent="jPHau2xeoSbhI2vaK8ID-25" vertex="1">
          <mxGeometry y="26" width="195" height="26" as="geometry" />
        </mxCell>
        <mxCell id="0izLVIcKK9ym0HCeA4KC-6" value="- studentUIInput: StudentUIInput" style="text;strokeColor=none;fillColor=none;align=left;verticalAlign=top;spacingLeft=4;spacingRight=4;overflow=hidden;rotatable=0;points=[[0,0.5],[1,0.5]];portConstraint=eastwest;whiteSpace=wrap;html=1;" parent="jPHau2xeoSbhI2vaK8ID-25" vertex="1">
          <mxGeometry y="52" width="195" height="26" as="geometry" />
        </mxCell>
        <mxCell id="jPHau2xeoSbhI2vaK8ID-27" value="" style="line;strokeWidth=1;fillColor=none;align=left;verticalAlign=middle;spacingTop=-1;spacingLeft=3;spacingRight=3;rotatable=0;labelPosition=right;points=[];portConstraint=eastwest;strokeColor=inherit;" parent="jPHau2xeoSbhI2vaK8ID-25" vertex="1">
          <mxGeometry y="78" width="195" height="8" as="geometry" />
        </mxCell>
        <mxCell id="jPHau2xeoSbhI2vaK8ID-28" value="+ execute(RequestData): void" style="text;strokeColor=none;fillColor=none;align=left;verticalAlign=top;spacingLeft=4;spacingRight=4;overflow=hidden;rotatable=0;points=[[0,0.5],[1,0.5]];portConstraint=eastwest;whiteSpace=wrap;html=1;" parent="jPHau2xeoSbhI2vaK8ID-25" vertex="1">
          <mxGeometry y="86" width="195" height="26" as="geometry" />
        </mxCell>
        <mxCell id="jPHau2xeoSbhI2vaK8ID-29" value="&lt;span style=&quot;&quot;&gt;&lt;b&gt;Student&lt;/b&gt;&lt;/span&gt;" style="swimlane;fontStyle=0;align=center;verticalAlign=top;childLayout=stackLayout;horizontal=1;startSize=26;horizontalStack=0;resizeParent=1;resizeParentMax=0;resizeLast=0;collapsible=1;marginBottom=0;whiteSpace=wrap;html=1;" parent="1" vertex="1">
          <mxGeometry x="720" y="320" width="160" height="164" as="geometry" />
        </mxCell>
        <mxCell id="jPHau2xeoSbhI2vaK8ID-30" value="- hoTen: String" style="text;strokeColor=none;fillColor=none;align=left;verticalAlign=top;spacingLeft=4;spacingRight=4;overflow=hidden;rotatable=0;points=[[0,0.5],[1,0.5]];portConstraint=eastwest;whiteSpace=wrap;html=1;" parent="jPHau2xeoSbhI2vaK8ID-29" vertex="1">
          <mxGeometry y="26" width="160" height="26" as="geometry" />
        </mxCell>
        <mxCell id="jPHau2xeoSbhI2vaK8ID-38" value="- maSV: int" style="text;strokeColor=none;fillColor=none;align=left;verticalAlign=top;spacingLeft=4;spacingRight=4;overflow=hidden;rotatable=0;points=[[0,0.5],[1,0.5]];portConstraint=eastwest;whiteSpace=wrap;html=1;" parent="jPHau2xeoSbhI2vaK8ID-29" vertex="1">
          <mxGeometry y="52" width="160" height="26" as="geometry" />
        </mxCell>
        <mxCell id="jPHau2xeoSbhI2vaK8ID-39" value="- diemLT: float" style="text;strokeColor=none;fillColor=none;align=left;verticalAlign=top;spacingLeft=4;spacingRight=4;overflow=hidden;rotatable=0;points=[[0,0.5],[1,0.5]];portConstraint=eastwest;whiteSpace=wrap;html=1;" parent="jPHau2xeoSbhI2vaK8ID-29" vertex="1">
          <mxGeometry y="78" width="160" height="26" as="geometry" />
        </mxCell>
        <mxCell id="jPHau2xeoSbhI2vaK8ID-37" value="- diemTH: float" style="text;strokeColor=none;fillColor=none;align=left;verticalAlign=top;spacingLeft=4;spacingRight=4;overflow=hidden;rotatable=0;points=[[0,0.5],[1,0.5]];portConstraint=eastwest;whiteSpace=wrap;html=1;" parent="jPHau2xeoSbhI2vaK8ID-29" vertex="1">
          <mxGeometry y="104" width="160" height="26" as="geometry" />
        </mxCell>
        <mxCell id="jPHau2xeoSbhI2vaK8ID-31" value="" style="line;strokeWidth=1;fillColor=none;align=left;verticalAlign=middle;spacingTop=-1;spacingLeft=3;spacingRight=3;rotatable=0;labelPosition=right;points=[];portConstraint=eastwest;strokeColor=inherit;" parent="jPHau2xeoSbhI2vaK8ID-29" vertex="1">
          <mxGeometry y="130" width="160" height="8" as="geometry" />
        </mxCell>
        <mxCell id="jPHau2xeoSbhI2vaK8ID-32" value="+ tinhTB()" style="text;strokeColor=none;fillColor=none;align=left;verticalAlign=top;spacingLeft=4;spacingRight=4;overflow=hidden;rotatable=0;points=[[0,0.5],[1,0.5]];portConstraint=eastwest;whiteSpace=wrap;html=1;" parent="jPHau2xeoSbhI2vaK8ID-29" vertex="1">
          <mxGeometry y="138" width="160" height="26" as="geometry" />
        </mxCell>
        <mxCell id="jPHau2xeoSbhI2vaK8ID-33" value="&lt;b&gt;StudentUIOutput&lt;/b&gt;" style="swimlane;fontStyle=0;align=center;verticalAlign=top;childLayout=stackLayout;horizontal=1;startSize=26;horizontalStack=0;resizeParent=1;resizeParentMax=0;resizeLast=0;collapsible=1;marginBottom=0;whiteSpace=wrap;html=1;" parent="1" vertex="1">
          <mxGeometry x="40" y="800" width="160" height="86" as="geometry" />
        </mxCell>
        <mxCell id="jPHau2xeoSbhI2vaK8ID-34" value="- stdOut: PrintWriter" style="text;strokeColor=none;fillColor=none;align=left;verticalAlign=top;spacingLeft=4;spacingRight=4;overflow=hidden;rotatable=0;points=[[0,0.5],[1,0.5]];portConstraint=eastwest;whiteSpace=wrap;html=1;" parent="jPHau2xeoSbhI2vaK8ID-33" vertex="1">
          <mxGeometry y="26" width="160" height="26" as="geometry" />
        </mxCell>
        <mxCell id="jPHau2xeoSbhI2vaK8ID-35" value="" style="line;strokeWidth=1;fillColor=none;align=left;verticalAlign=middle;spacingTop=-1;spacingLeft=3;spacingRight=3;rotatable=0;labelPosition=right;points=[];portConstraint=eastwest;strokeColor=inherit;" parent="jPHau2xeoSbhI2vaK8ID-33" vertex="1">
          <mxGeometry y="52" width="160" height="8" as="geometry" />
        </mxCell>
        <mxCell id="jPHau2xeoSbhI2vaK8ID-36" value="+ output(): void" style="text;strokeColor=none;fillColor=none;align=left;verticalAlign=top;spacingLeft=4;spacingRight=4;overflow=hidden;rotatable=0;points=[[0,0.5],[1,0.5]];portConstraint=eastwest;whiteSpace=wrap;html=1;" parent="jPHau2xeoSbhI2vaK8ID-33" vertex="1">
          <mxGeometry y="60" width="160" height="26" as="geometry" />
        </mxCell>
        <mxCell id="5w3yNyjz_HAzHa36QDgl-5" value="RequestData&lt;div&gt;&lt;br&gt;&lt;/div&gt;" style="swimlane;fontStyle=1;align=center;verticalAlign=top;childLayout=stackLayout;horizontal=1;startSize=26;horizontalStack=0;resizeParent=1;resizeParentMax=0;resizeLast=0;collapsible=1;marginBottom=0;whiteSpace=wrap;html=1;" parent="1" vertex="1">
          <mxGeometry x="362.5" y="-10" width="160" height="138" as="geometry" />
        </mxCell>
        <mxCell id="5w3yNyjz_HAzHa36QDgl-6" value="- hoTen: String" style="text;strokeColor=none;fillColor=none;align=left;verticalAlign=top;spacingLeft=4;spacingRight=4;overflow=hidden;rotatable=0;points=[[0,0.5],[1,0.5]];portConstraint=eastwest;whiteSpace=wrap;html=1;" parent="5w3yNyjz_HAzHa36QDgl-5" vertex="1">
          <mxGeometry y="26" width="160" height="26" as="geometry" />
        </mxCell>
        <mxCell id="0izLVIcKK9ym0HCeA4KC-1" value="- maSV: int" style="text;strokeColor=none;fillColor=none;align=left;verticalAlign=top;spacingLeft=4;spacingRight=4;overflow=hidden;rotatable=0;points=[[0,0.5],[1,0.5]];portConstraint=eastwest;whiteSpace=wrap;html=1;" parent="5w3yNyjz_HAzHa36QDgl-5" vertex="1">
          <mxGeometry y="52" width="160" height="26" as="geometry" />
        </mxCell>
        <mxCell id="0izLVIcKK9ym0HCeA4KC-2" value="- diemLT: float" style="text;strokeColor=none;fillColor=none;align=left;verticalAlign=top;spacingLeft=4;spacingRight=4;overflow=hidden;rotatable=0;points=[[0,0.5],[1,0.5]];portConstraint=eastwest;whiteSpace=wrap;html=1;" parent="5w3yNyjz_HAzHa36QDgl-5" vertex="1">
          <mxGeometry y="78" width="160" height="26" as="geometry" />
        </mxCell>
        <mxCell id="0izLVIcKK9ym0HCeA4KC-3" value="- diemTL: float" style="text;strokeColor=none;fillColor=none;align=left;verticalAlign=top;spacingLeft=4;spacingRight=4;overflow=hidden;rotatable=0;points=[[0,0.5],[1,0.5]];portConstraint=eastwest;whiteSpace=wrap;html=1;" parent="5w3yNyjz_HAzHa36QDgl-5" vertex="1">
          <mxGeometry y="104" width="160" height="26" as="geometry" />
        </mxCell>
        <mxCell id="5w3yNyjz_HAzHa36QDgl-7" value="" style="line;strokeWidth=1;fillColor=none;align=left;verticalAlign=middle;spacingTop=-1;spacingLeft=3;spacingRight=3;rotatable=0;labelPosition=right;points=[];portConstraint=eastwest;strokeColor=inherit;" parent="5w3yNyjz_HAzHa36QDgl-5" vertex="1">
          <mxGeometry y="130" width="160" height="8" as="geometry" />
        </mxCell>
        <mxCell id="5w3yNyjz_HAzHa36QDgl-9" value="ReponsetData" style="swimlane;fontStyle=1;align=center;verticalAlign=top;childLayout=stackLayout;horizontal=1;startSize=26;horizontalStack=0;resizeParent=1;resizeParentMax=0;resizeLast=0;collapsible=1;marginBottom=0;whiteSpace=wrap;html=1;" parent="1" vertex="1">
          <mxGeometry x="362.5" y="560" width="160" height="60" as="geometry" />
        </mxCell>
        <mxCell id="5w3yNyjz_HAzHa36QDgl-10" value="- result: String" style="text;strokeColor=none;fillColor=none;align=left;verticalAlign=top;spacingLeft=4;spacingRight=4;overflow=hidden;rotatable=0;points=[[0,0.5],[1,0.5]];portConstraint=eastwest;whiteSpace=wrap;html=1;" parent="5w3yNyjz_HAzHa36QDgl-9" vertex="1">
          <mxGeometry y="26" width="160" height="26" as="geometry" />
        </mxCell>
        <mxCell id="5w3yNyjz_HAzHa36QDgl-11" value="" style="line;strokeWidth=1;fillColor=none;align=left;verticalAlign=middle;spacingTop=-1;spacingLeft=3;spacingRight=3;rotatable=0;labelPosition=right;points=[];portConstraint=eastwest;strokeColor=inherit;" parent="5w3yNyjz_HAzHa36QDgl-9" vertex="1">
          <mxGeometry y="52" width="160" height="8" as="geometry" />
        </mxCell>
        <mxCell id="0izLVIcKK9ym0HCeA4KC-9" value="" style="endArrow=open;endSize=12;dashed=1;html=1;rounded=0;exitX=0.5;exitY=0;exitDx=0;exitDy=0;entryX=0.5;entryY=1;entryDx=0;entryDy=0;" parent="1" source="jPHau2xeoSbhI2vaK8ID-25" target="5w3yNyjz_HAzHa36QDgl-5" edge="1">
          <mxGeometry width="160" relative="1" as="geometry">
            <mxPoint x="330" y="220" as="sourcePoint" />
            <mxPoint x="490" y="220" as="targetPoint" />
          </mxGeometry>
        </mxCell>
        <mxCell id="0izLVIcKK9ym0HCeA4KC-10" value="" style="html=1;verticalAlign=bottom;endArrow=block;curved=0;rounded=0;exitX=0.493;exitY=1;exitDx=0;exitDy=0;exitPerimeter=0;entryX=0.5;entryY=0;entryDx=0;entryDy=0;" parent="1" source="jPHau2xeoSbhI2vaK8ID-28" target="5w3yNyjz_HAzHa36QDgl-9" edge="1">
          <mxGeometry width="80" relative="1" as="geometry">
            <mxPoint x="360" y="390" as="sourcePoint" />
            <mxPoint x="440" y="390" as="targetPoint" />
          </mxGeometry>
        </mxCell>
        <mxCell id="0izLVIcKK9ym0HCeA4KC-11" value="" style="html=1;verticalAlign=bottom;endArrow=block;curved=0;rounded=0;exitX=1;exitY=0.5;exitDx=0;exitDy=0;entryX=0;entryY=0.5;entryDx=0;entryDy=0;" parent="1" source="0izLVIcKK9ym0HCeA4KC-6" target="jPHau2xeoSbhI2vaK8ID-38" edge="1">
          <mxGeometry width="80" relative="1" as="geometry">
            <mxPoint x="610" y="338" as="sourcePoint" />
            <mxPoint x="612" y="466" as="targetPoint" />
          </mxGeometry>
        </mxCell>
        <mxCell id="0izLVIcKK9ym0HCeA4KC-13" value="" style="html=1;verticalAlign=bottom;endArrow=block;curved=0;rounded=0;exitX=0.5;exitY=0;exitDx=0;exitDy=0;entryX=0;entryY=0.5;entryDx=0;entryDy=0;" parent="1" source="jPHau2xeoSbhI2vaK8ID-21" target="0izLVIcKK9ym0HCeA4KC-2" edge="1">
          <mxGeometry width="80" relative="1" as="geometry">
            <mxPoint x="471" y="462" as="sourcePoint" />
            <mxPoint x="473" y="590" as="targetPoint" />
            <Array as="points">
              <mxPoint x="-280" y="80" />
            </Array>
          </mxGeometry>
        </mxCell>
        <mxCell id="0izLVIcKK9ym0HCeA4KC-14" value="" style="html=1;verticalAlign=bottom;endArrow=block;curved=0;rounded=0;exitX=0;exitY=0.5;exitDx=0;exitDy=0;entryX=0.5;entryY=0;entryDx=0;entryDy=0;" parent="1" source="jPHau2xeoSbhI2vaK8ID-28" target="s-2woyK-ea4eCAlyzW3T-7" edge="1">
          <mxGeometry width="80" relative="1" as="geometry">
            <mxPoint x="481" y="472" as="sourcePoint" />
            <mxPoint x="483" y="600" as="targetPoint" />
          </mxGeometry>
        </mxCell>
        <mxCell id="0izLVIcKK9ym0HCeA4KC-15" value="" style="html=1;verticalAlign=bottom;endArrow=block;curved=0;rounded=0;exitX=1;exitY=0.5;exitDx=0;exitDy=0;entryX=0;entryY=0.5;entryDx=0;entryDy=0;" parent="1" source="0izLVIcKK9ym0HCeA4KC-4" target="s-2woyK-ea4eCAlyzW3T-6" edge="1">
          <mxGeometry width="80" relative="1" as="geometry">
            <mxPoint x="345" y="385" as="sourcePoint" />
            <mxPoint x="310" y="330" as="targetPoint" />
          </mxGeometry>
        </mxCell>
        <mxCell id="s-2woyK-ea4eCAlyzW3T-6" value="&lt;p style=&quot;margin:0px;margin-top:4px;text-align:center;&quot;&gt;&lt;i&gt;&amp;lt;&amp;lt;Interface&amp;gt;&amp;gt;&lt;/i&gt;&lt;br&gt;&lt;b&gt;InputBoundary&lt;/b&gt;&lt;/p&gt;&lt;hr size=&quot;1&quot; style=&quot;border-style:solid;&quot;&gt;&lt;p style=&quot;margin:0px;margin-left:4px;&quot;&gt;+ f&lt;/p&gt;&lt;hr size=&quot;1&quot; style=&quot;border-style:solid;&quot;&gt;&lt;p style=&quot;margin:0px;margin-left:4px;&quot;&gt;+ execute(RequestData): void&lt;br&gt;&lt;/p&gt;" style="verticalAlign=top;align=left;overflow=fill;html=1;whiteSpace=wrap;" parent="1" vertex="1">
          <mxGeometry x="-40" y="336.5" width="190" height="97" as="geometry" />
        </mxCell>
        <mxCell id="s-2woyK-ea4eCAlyzW3T-7" value="&lt;p style=&quot;margin:0px;margin-top:4px;text-align:center;&quot;&gt;&lt;i&gt;&amp;lt;&amp;lt;Interface&amp;gt;&amp;gt;&lt;/i&gt;&lt;br&gt;&lt;b&gt;OutputBoundary&lt;/b&gt;&lt;/p&gt;&lt;hr size=&quot;1&quot; style=&quot;border-style:solid;&quot;&gt;&lt;p style=&quot;margin:0px;margin-left:4px;&quot;&gt;+ f&lt;/p&gt;&lt;hr size=&quot;1&quot; style=&quot;border-style:solid;&quot;&gt;&lt;p style=&quot;margin:0px;margin-left:4px;&quot;&gt;+ showError(ResponseError): void&lt;br&gt;&lt;/p&gt;&lt;p style=&quot;margin:0px;margin-left:4px;&quot;&gt;+ showResult(ResponseData): void&lt;/p&gt;" style="verticalAlign=top;align=left;overflow=fill;html=1;whiteSpace=wrap;" parent="1" vertex="1">
          <mxGeometry x="20" y="560" width="200" height="120" as="geometry" />
        </mxCell>
        <mxCell id="s-2woyK-ea4eCAlyzW3T-8" value="" style="endArrow=classic;html=1;rounded=0;exitX=1;exitY=0;exitDx=0;exitDy=0;entryX=0.5;entryY=1;entryDx=0;entryDy=0;" parent="1" source="jPHau2xeoSbhI2vaK8ID-33" target="5w3yNyjz_HAzHa36QDgl-9" edge="1">
          <mxGeometry width="50" height="50" relative="1" as="geometry">
            <mxPoint x="500" y="750" as="sourcePoint" />
            <mxPoint x="550" y="700" as="targetPoint" />
          </mxGeometry>
        </mxCell>
        <mxCell id="s-2woyK-ea4eCAlyzW3T-10" value="" style="endArrow=block;dashed=1;endFill=0;endSize=12;html=1;rounded=0;exitX=0.5;exitY=0;exitDx=0;exitDy=0;entryX=0.5;entryY=1;entryDx=0;entryDy=0;" parent="1" source="jPHau2xeoSbhI2vaK8ID-33" target="s-2woyK-ea4eCAlyzW3T-7" edge="1">
          <mxGeometry width="160" relative="1" as="geometry">
            <mxPoint x="40" y="760" as="sourcePoint" />
            <mxPoint x="200" y="760" as="targetPoint" />
          </mxGeometry>
        </mxCell>
        <mxCell id="s-2woyK-ea4eCAlyzW3T-11" value="" style="endArrow=block;dashed=1;endFill=0;endSize=12;html=1;rounded=0;exitX=0;exitY=0.5;exitDx=0;exitDy=0;entryX=1;entryY=0.5;entryDx=0;entryDy=0;" parent="1" source="0izLVIcKK9ym0HCeA4KC-6" target="s-2woyK-ea4eCAlyzW3T-6" edge="1">
          <mxGeometry width="160" relative="1" as="geometry">
            <mxPoint x="130" y="810" as="sourcePoint" />
            <mxPoint x="130" y="690" as="targetPoint" />
          </mxGeometry>
        </mxCell>
      </root>
    </mxGraphModel>
  </diagram>
  <diagram id="-E9QA56InsLcr_RS8a8Y" name="UCDiagram">
    <mxGraphModel dx="1036" dy="614" grid="1" gridSize="10" guides="1" tooltips="1" connect="1" arrows="1" fold="1" page="1" pageScale="1" pageWidth="850" pageHeight="1100" math="0" shadow="0">
      <root>
        <mxCell id="0" />
        <mxCell id="1" parent="0" />
        <mxCell id="gyNA58SJnlUczSBL5Nal-2" value="User" style="shape=umlActor;verticalLabelPosition=bottom;verticalAlign=top;html=1;" vertex="1" parent="1">
          <mxGeometry x="90" y="260" width="30" height="60" as="geometry" />
        </mxCell>
        <mxCell id="gyNA58SJnlUczSBL5Nal-3" value="QuanLySinhVien" style="shape=rect;html=1;verticalAlign=top;fontStyle=1;whiteSpace=wrap;align=center;" vertex="1" parent="1">
          <mxGeometry x="280" y="80" width="400" height="520" as="geometry" />
        </mxCell>
        <mxCell id="gyNA58SJnlUczSBL5Nal-4" value="Tính điểm trung bình" style="ellipse;whiteSpace=wrap;html=1;" vertex="1" parent="1">
          <mxGeometry x="410" y="140" width="120" height="80" as="geometry" />
        </mxCell>
        <mxCell id="gyNA58SJnlUczSBL5Nal-5" value="" style="endArrow=none;html=1;rounded=0;exitX=1;exitY=0.3333333333333333;exitDx=0;exitDy=0;exitPerimeter=0;entryX=0;entryY=0.5;entryDx=0;entryDy=0;" edge="1" parent="1" source="gyNA58SJnlUczSBL5Nal-2" target="gyNA58SJnlUczSBL5Nal-4">
          <mxGeometry width="50" height="50" relative="1" as="geometry">
            <mxPoint x="390" y="360" as="sourcePoint" />
            <mxPoint x="440" y="310" as="targetPoint" />
          </mxGeometry>
        </mxCell>
      </root>
    </mxGraphModel>
  </diagram>
  <diagram id="DeJmxkbfnnHJGt9UFvgR" name="SequenceDiagram">
    <mxGraphModel dx="1050" dy="629" grid="1" gridSize="10" guides="1" tooltips="1" connect="1" arrows="1" fold="1" page="1" pageScale="1" pageWidth="850" pageHeight="1100" math="0" shadow="0">
      <root>
        <mxCell id="0" />
        <mxCell id="1" parent="0" />
        <mxCell id="RAmZDH4Z5-PDMgC21o_p-5" value="" style="shape=umlLifeline;perimeter=lifelinePerimeter;whiteSpace=wrap;html=1;container=1;dropTarget=0;collapsible=0;recursiveResize=0;outlineConnect=0;portConstraint=eastwest;newEdgeStyle={&quot;curved&quot;:0,&quot;rounded&quot;:0};participant=umlActor;" parent="1" vertex="1">
          <mxGeometry x="70" y="40" width="20" height="760" as="geometry" />
        </mxCell>
        <mxCell id="RAmZDH4Z5-PDMgC21o_p-6" value="&lt;div style=&quot;&quot;&gt;&lt;span style=&quot;font-weight: 700; background-color: initial;&quot;&gt;StudentUIInput&lt;/span&gt;&lt;/div&gt;" style="shape=umlLifeline;perimeter=lifelinePerimeter;whiteSpace=wrap;html=1;container=1;dropTarget=0;collapsible=0;recursiveResize=0;outlineConnect=0;portConstraint=eastwest;newEdgeStyle={&quot;curved&quot;:0,&quot;rounded&quot;:0};participant=umlBoundary;align=center;" parent="1" vertex="1">
          <mxGeometry x="280" y="40" width="150" height="760" as="geometry" />
        </mxCell>
        <mxCell id="qOx7L7RwSw9HIVgswRT9-3" value="" style="html=1;points=[[0,0,0,0,5],[0,1,0,0,-5],[1,0,0,0,5],[1,1,0,0,-5]];perimeter=orthogonalPerimeter;outlineConnect=0;targetShapes=umlLifeline;portConstraint=eastwest;newEdgeStyle={&quot;curved&quot;:0,&quot;rounded&quot;:0};" parent="RAmZDH4Z5-PDMgC21o_p-6" vertex="1">
          <mxGeometry x="70" y="70" width="10" height="420" as="geometry" />
        </mxCell>
        <mxCell id="qOx7L7RwSw9HIVgswRT9-11" style="edgeStyle=orthogonalEdgeStyle;rounded=0;orthogonalLoop=1;jettySize=auto;html=1;curved=0;exitX=1;exitY=0;exitDx=0;exitDy=5;exitPerimeter=0;" parent="RAmZDH4Z5-PDMgC21o_p-6" source="qOx7L7RwSw9HIVgswRT9-3" target="qOx7L7RwSw9HIVgswRT9-3" edge="1">
          <mxGeometry relative="1" as="geometry">
            <Array as="points">
              <mxPoint x="110" y="75" />
              <mxPoint x="110" y="110" />
            </Array>
          </mxGeometry>
        </mxCell>
        <mxCell id="qOx7L7RwSw9HIVgswRT9-12" value="1. Input()" style="edgeLabel;html=1;align=center;verticalAlign=middle;resizable=0;points=[];" parent="qOx7L7RwSw9HIVgswRT9-11" vertex="1" connectable="0">
          <mxGeometry x="-0.6518" y="-2" relative="1" as="geometry">
            <mxPoint x="44" y="13" as="offset" />
          </mxGeometry>
        </mxCell>
        <mxCell id="aR6v0m3BgtF8yHvRolNh-1" value="&lt;div style=&quot;&quot;&gt;&lt;span style=&quot;font-weight: 700; background-color: initial;&quot;&gt;StudentUIOutput&lt;/span&gt;&lt;/div&gt;" style="shape=umlLifeline;perimeter=lifelinePerimeter;whiteSpace=wrap;html=1;container=1;dropTarget=0;collapsible=0;recursiveResize=0;outlineConnect=0;portConstraint=eastwest;newEdgeStyle={&quot;curved&quot;:0,&quot;rounded&quot;:0};participant=umlBoundary;align=center;" parent="1" vertex="1">
          <mxGeometry x="480" y="40" width="150" height="760" as="geometry" />
        </mxCell>
        <mxCell id="qOx7L7RwSw9HIVgswRT9-49" value="" style="html=1;points=[[0,0,0,0,5],[0,1,0,0,-5],[1,0,0,0,5],[1,1,0,0,-5]];perimeter=orthogonalPerimeter;outlineConnect=0;targetShapes=umlLifeline;portConstraint=eastwest;newEdgeStyle={&quot;curved&quot;:0,&quot;rounded&quot;:0};" parent="aR6v0m3BgtF8yHvRolNh-1" vertex="1">
          <mxGeometry x="70" y="560" width="10" height="120" as="geometry" />
        </mxCell>
        <mxCell id="qOx7L7RwSw9HIVgswRT9-51" style="edgeStyle=orthogonalEdgeStyle;rounded=0;orthogonalLoop=1;jettySize=auto;html=1;curved=0;exitX=0;exitY=0;exitDx=0;exitDy=5;exitPerimeter=0;" parent="aR6v0m3BgtF8yHvRolNh-1" source="qOx7L7RwSw9HIVgswRT9-49" edge="1">
          <mxGeometry relative="1" as="geometry">
            <mxPoint x="72" y="667" as="targetPoint" />
            <Array as="points">
              <mxPoint x="70" y="640" />
              <mxPoint x="30" y="640" />
              <mxPoint x="30" y="667" />
            </Array>
          </mxGeometry>
        </mxCell>
        <mxCell id="qOx7L7RwSw9HIVgswRT9-52" value="11. xuất kết quả ra màn hình" style="edgeLabel;html=1;align=center;verticalAlign=middle;resizable=0;points=[];" parent="qOx7L7RwSw9HIVgswRT9-51" vertex="1" connectable="0">
          <mxGeometry x="0.2684" relative="1" as="geometry">
            <mxPoint x="-40" y="-11" as="offset" />
          </mxGeometry>
        </mxCell>
        <mxCell id="aR6v0m3BgtF8yHvRolNh-2" value="&lt;span style=&quot;font-weight: 700;&quot;&gt;StudentControl&lt;/span&gt;" style="shape=umlLifeline;perimeter=lifelinePerimeter;whiteSpace=wrap;html=1;container=1;dropTarget=0;collapsible=0;recursiveResize=0;outlineConnect=0;portConstraint=eastwest;newEdgeStyle={&quot;curved&quot;:0,&quot;rounded&quot;:0};participant=umlControl;" parent="1" vertex="1">
          <mxGeometry x="680" y="40" width="130" height="760" as="geometry" />
        </mxCell>
        <mxCell id="qOx7L7RwSw9HIVgswRT9-19" value="" style="html=1;points=[[0,0,0,0,5],[0,1,0,0,-5],[1,0,0,0,5],[1,1,0,0,-5]];perimeter=orthogonalPerimeter;outlineConnect=0;targetShapes=umlLifeline;portConstraint=eastwest;newEdgeStyle={&quot;curved&quot;:0,&quot;rounded&quot;:0};" parent="aR6v0m3BgtF8yHvRolNh-2" vertex="1">
          <mxGeometry x="60" y="80" width="10" height="550" as="geometry" />
        </mxCell>
        <mxCell id="qOx7L7RwSw9HIVgswRT9-20" style="edgeStyle=orthogonalEdgeStyle;rounded=0;orthogonalLoop=1;jettySize=auto;html=1;curved=0;exitX=1;exitY=0;exitDx=0;exitDy=5;exitPerimeter=0;" parent="aR6v0m3BgtF8yHvRolNh-2" source="qOx7L7RwSw9HIVgswRT9-19" target="qOx7L7RwSw9HIVgswRT9-19" edge="1">
          <mxGeometry relative="1" as="geometry">
            <Array as="points">
              <mxPoint x="70" y="240" />
              <mxPoint x="90" y="240" />
              <mxPoint x="90" y="270" />
            </Array>
          </mxGeometry>
        </mxCell>
        <mxCell id="qOx7L7RwSw9HIVgswRT9-21" value="5. kiểm tra hợp lệ" style="edgeLabel;html=1;align=center;verticalAlign=middle;resizable=0;points=[];" parent="qOx7L7RwSw9HIVgswRT9-20" vertex="1" connectable="0">
          <mxGeometry x="0.3943" y="-1" relative="1" as="geometry">
            <mxPoint x="48" y="-11" as="offset" />
          </mxGeometry>
        </mxCell>
        <mxCell id="3Q-P3R3Dqc6IjuxWtTIZ-1" value="&lt;b&gt;Student&lt;/b&gt;" style="shape=umlLifeline;perimeter=lifelinePerimeter;whiteSpace=wrap;html=1;container=1;dropTarget=0;collapsible=0;recursiveResize=0;outlineConnect=0;portConstraint=eastwest;newEdgeStyle={&quot;curved&quot;:0,&quot;rounded&quot;:0};participant=umlEntity;" parent="1" vertex="1">
          <mxGeometry x="890" y="40" width="120" height="760" as="geometry" />
        </mxCell>
        <mxCell id="qOx7L7RwSw9HIVgswRT9-44" value="" style="html=1;points=[[0,0,0,0,5],[0,1,0,0,-5],[1,0,0,0,5],[1,1,0,0,-5]];perimeter=orthogonalPerimeter;outlineConnect=0;targetShapes=umlLifeline;portConstraint=eastwest;newEdgeStyle={&quot;curved&quot;:0,&quot;rounded&quot;:0};" parent="3Q-P3R3Dqc6IjuxWtTIZ-1" vertex="1">
          <mxGeometry x="55" y="470" width="10" height="140" as="geometry" />
        </mxCell>
        <mxCell id="qOx7L7RwSw9HIVgswRT9-46" style="edgeStyle=orthogonalEdgeStyle;rounded=0;orthogonalLoop=1;jettySize=auto;html=1;curved=0;exitX=1;exitY=0;exitDx=0;exitDy=5;exitPerimeter=0;" parent="3Q-P3R3Dqc6IjuxWtTIZ-1" source="qOx7L7RwSw9HIVgswRT9-44" target="qOx7L7RwSw9HIVgswRT9-44" edge="1">
          <mxGeometry relative="1" as="geometry">
            <Array as="points">
              <mxPoint x="65" y="520" />
              <mxPoint x="120" y="520" />
              <mxPoint x="120" y="560" />
            </Array>
          </mxGeometry>
        </mxCell>
        <mxCell id="qOx7L7RwSw9HIVgswRT9-47" value="8. tính điểm trung bình" style="edgeLabel;html=1;align=center;verticalAlign=middle;resizable=0;points=[];" parent="qOx7L7RwSw9HIVgswRT9-46" vertex="1" connectable="0">
          <mxGeometry x="-0.2047" y="-5" relative="1" as="geometry">
            <mxPoint x="52" y="-25" as="offset" />
          </mxGeometry>
        </mxCell>
        <mxCell id="qOx7L7RwSw9HIVgswRT9-13" value="2. Yêu cầu nhập hoten, mssv, diemTH, diemLT" style="endArrow=open;endSize=12;dashed=1;html=1;rounded=0;" parent="1" source="qOx7L7RwSw9HIVgswRT9-3" edge="1">
          <mxGeometry x="-0.037" y="-20" width="160" relative="1" as="geometry">
            <mxPoint x="460" y="260" as="sourcePoint" />
            <mxPoint x="80" y="160" as="targetPoint" />
            <mxPoint as="offset" />
          </mxGeometry>
        </mxCell>
        <mxCell id="qOx7L7RwSw9HIVgswRT9-14" value="3. Nhập hoten, mssv, diemTH, diemLT" style="endArrow=open;endSize=12;dashed=1;html=1;rounded=0;" parent="1" edge="1">
          <mxGeometry x="0.0369" y="10" width="160" relative="1" as="geometry">
            <mxPoint x="79.5" y="210" as="sourcePoint" />
            <mxPoint x="350.5" y="210" as="targetPoint" />
            <mxPoint x="1" as="offset" />
          </mxGeometry>
        </mxCell>
        <mxCell id="qOx7L7RwSw9HIVgswRT9-17" value="loop" style="shape=umlFrame;whiteSpace=wrap;html=1;pointerEvents=0;" parent="1" vertex="1">
          <mxGeometry x="50" y="240" width="810" height="270" as="geometry" />
        </mxCell>
        <mxCell id="qOx7L7RwSw9HIVgswRT9-18" value="4. execute(ReqestData)" style="html=1;verticalAlign=bottom;endArrow=block;curved=0;rounded=0;exitX=1;exitY=0.381;exitDx=0;exitDy=0;exitPerimeter=0;" parent="1" source="qOx7L7RwSw9HIVgswRT9-3" target="aR6v0m3BgtF8yHvRolNh-2" edge="1">
          <mxGeometry width="80" relative="1" as="geometry">
            <mxPoint x="390" y="270" as="sourcePoint" />
            <mxPoint x="470" y="270" as="targetPoint" />
          </mxGeometry>
        </mxCell>
        <mxCell id="qOx7L7RwSw9HIVgswRT9-22" value="Alt" style="shape=umlFrame;whiteSpace=wrap;html=1;pointerEvents=0;" parent="1" vertex="1">
          <mxGeometry x="20" y="320" width="910" height="260" as="geometry" />
        </mxCell>
        <mxCell id="qOx7L7RwSw9HIVgswRT9-23" value="6. output(ResponseData)" style="html=1;verticalAlign=bottom;endArrow=block;curved=0;rounded=0;" parent="1" edge="1">
          <mxGeometry width="80" relative="1" as="geometry">
            <mxPoint x="740" y="350" as="sourcePoint" />
            <mxPoint x="560" y="350" as="targetPoint" />
          </mxGeometry>
        </mxCell>
        <mxCell id="qOx7L7RwSw9HIVgswRT9-34" style="edgeStyle=orthogonalEdgeStyle;rounded=0;orthogonalLoop=1;jettySize=auto;html=1;curved=0;exitX=0;exitY=0;exitDx=0;exitDy=5;exitPerimeter=0;" parent="1" source="qOx7L7RwSw9HIVgswRT9-24" target="qOx7L7RwSw9HIVgswRT9-24" edge="1">
          <mxGeometry relative="1" as="geometry">
            <Array as="points">
              <mxPoint x="550" y="360" />
              <mxPoint x="490" y="360" />
              <mxPoint x="490" y="400" />
            </Array>
          </mxGeometry>
        </mxCell>
        <mxCell id="qOx7L7RwSw9HIVgswRT9-36" value="6.1. xuất ra màn hình thông báo lỗi" style="edgeLabel;html=1;align=center;verticalAlign=middle;resizable=0;points=[];" parent="qOx7L7RwSw9HIVgswRT9-34" vertex="1" connectable="0">
          <mxGeometry x="0.0183" y="1" relative="1" as="geometry">
            <mxPoint x="-46" y="-16" as="offset" />
          </mxGeometry>
        </mxCell>
        <mxCell id="qOx7L7RwSw9HIVgswRT9-24" value="" style="html=1;points=[[0,0,0,0,5],[0,1,0,0,-5],[1,0,0,0,5],[1,1,0,0,-5]];perimeter=orthogonalPerimeter;outlineConnect=0;targetShapes=umlLifeline;portConstraint=eastwest;newEdgeStyle={&quot;curved&quot;:0,&quot;rounded&quot;:0};" parent="1" vertex="1">
          <mxGeometry x="550" y="290" width="10" height="180" as="geometry" />
        </mxCell>
        <mxCell id="qOx7L7RwSw9HIVgswRT9-37" value="6.2. getInput(label)" style="html=1;verticalAlign=bottom;endArrow=block;curved=0;rounded=0;entryX=1;entryY=0.808;entryDx=0;entryDy=0;entryPerimeter=0;" parent="1" target="qOx7L7RwSw9HIVgswRT9-3" edge="1">
          <mxGeometry width="80" relative="1" as="geometry">
            <mxPoint x="550" y="449.40999999999997" as="sourcePoint" />
            <mxPoint x="370" y="449.40999999999997" as="targetPoint" />
          </mxGeometry>
        </mxCell>
        <mxCell id="qOx7L7RwSw9HIVgswRT9-42" style="edgeStyle=orthogonalEdgeStyle;rounded=0;orthogonalLoop=1;jettySize=auto;html=1;curved=0;exitX=0;exitY=0;exitDx=0;exitDy=5;exitPerimeter=0;" parent="1" source="qOx7L7RwSw9HIVgswRT9-3" edge="1">
          <mxGeometry relative="1" as="geometry">
            <mxPoint x="349.94" y="120" as="sourcePoint" />
            <mxPoint x="350" y="490" as="targetPoint" />
            <Array as="points">
              <mxPoint x="350" y="460" />
              <mxPoint x="290" y="460" />
              <mxPoint x="290" y="490" />
            </Array>
          </mxGeometry>
        </mxCell>
        <mxCell id="qOx7L7RwSw9HIVgswRT9-43" value="6.3. nhập lại lỗi sai" style="edgeLabel;html=1;align=center;verticalAlign=middle;resizable=0;points=[];" parent="qOx7L7RwSw9HIVgswRT9-42" vertex="1" connectable="0">
          <mxGeometry x="0.0183" y="1" relative="1" as="geometry">
            <mxPoint x="-61" y="83" as="offset" />
          </mxGeometry>
        </mxCell>
        <mxCell id="qOx7L7RwSw9HIVgswRT9-45" value="7. Gửi thông điệp cho Student()" style="html=1;verticalAlign=bottom;endArrow=block;curved=0;rounded=0;exitX=1.276;exitY=0.867;exitDx=0;exitDy=0;exitPerimeter=0;" parent="1" edge="1">
          <mxGeometry width="80" relative="1" as="geometry">
            <mxPoint x="752.76" y="549.0000000000001" as="sourcePoint" />
            <mxPoint x="945" y="549.0000000000001" as="targetPoint" />
          </mxGeometry>
        </mxCell>
        <mxCell id="qOx7L7RwSw9HIVgswRT9-48" value="9. kết quả cập nhật" style="html=1;verticalAlign=bottom;endArrow=open;dashed=1;endSize=8;curved=0;rounded=0;" parent="1" edge="1">
          <mxGeometry relative="1" as="geometry">
            <mxPoint x="945" y="630" as="sourcePoint" />
            <mxPoint x="750" y="630" as="targetPoint" />
          </mxGeometry>
        </mxCell>
        <mxCell id="qOx7L7RwSw9HIVgswRT9-50" value="10. output(ResponseData)" style="html=1;verticalAlign=bottom;endArrow=block;curved=0;rounded=0;" parent="1" edge="1">
          <mxGeometry width="80" relative="1" as="geometry">
            <mxPoint x="740" y="650" as="sourcePoint" />
            <mxPoint x="560" y="650" as="targetPoint" />
          </mxGeometry>
        </mxCell>
      </root>
    </mxGraphModel>
  </diagram>
</mxfile>
